<svg width="24" height="25" viewBox="0 0 24 25" fill="none" xmlns="http://www.w3.org/2000/svg">
<path fill-rule="evenodd" clip-rule="evenodd" d="M13.5578 5.90084C12.6873 5.06548 11.3127 5.06548 10.4422 5.90084L5.81574 10.3402C5.70239 10.4489 5.62614 10.5906 5.5978 10.7451C5.04367 13.767 5.00277 16.8606 5.47681 19.8961L5.58933 20.6166H8.56579V14.4053C8.56579 13.991 8.90158 13.6553 9.31579 13.6553H14.6842C15.0984 13.6553 15.4342 13.991 15.4342 14.4053V20.6166H18.4107L18.5232 19.8961C18.9972 16.8606 18.9563 13.767 18.4022 10.7451C18.3739 10.5906 18.2976 10.4489 18.1843 10.3402L13.5578 5.90084ZM9.40363 4.81852C10.8546 3.42626 13.1454 3.42626 14.5964 4.81852L19.2228 9.25786C19.5634 9.58465 19.7925 10.0103 19.8776 10.4746C20.4621 13.6622 20.5053 16.9256 20.0052 20.1275L19.8245 21.285C19.7497 21.7637 19.3374 22.1166 18.8529 22.1166H14.6842C14.27 22.1166 13.9342 21.7808 13.9342 21.3666V15.1553H10.0658V21.3666C10.0658 21.7808 9.73 22.1166 9.31579 22.1166H5.14706C4.66258 22.1166 4.25029 21.7637 4.17554 21.285L3.99478 20.1275C3.49473 16.9256 3.53788 13.6622 4.12241 10.4746C4.20754 10.0103 4.43662 9.58465 4.77719 9.25786L9.40363 4.81852Z" fill="white"/>
</svg>
